<svg width="128" height="128" viewBox="0 0 128 128" fill="none" xmlns="http://www.w3.org/2000/svg">
<path fill-rule="evenodd" clip-rule="evenodd" d="M31 111C28.7909 111 27 109.209 27 107V36C27 33.7909 28.7909 32 31 32C33.2091 32 35 33.7909 35 36V107C35 109.209 33.2091 111 31 111Z" fill="#BCC574"/>
<path fill-rule="evenodd" clip-rule="evenodd" d="M55 111C52.7909 111 51 109.209 51 107V69C51 66.7909 52.7909 65 55 65C57.2091 65 59 66.7909 59 69V107C59 109.209 57.2091 111 55 111Z" fill="#BCC574"/>
<path fill-rule="evenodd" clip-rule="evenodd" d="M81 61V111H73V61C73 58.7909 74.7909 57 77 57C79.2091 57 81 58.7909 81 61Z" fill="#BCC574"/>
<path fill-rule="evenodd" clip-rule="evenodd" d="M63 73C63 70.7909 64.7909 69 67 69H86.5C88.7091 69 90.5 70.7909 90.5 73C90.5 75.2091 88.7091 77 86.5 77H67C64.7909 77 63 75.2091 63 73Z" fill="#BCC574"/>
<path d="M82 34.5C82 49.6878 69.6878 62 54.5 62C39.3122 62 27 49.6878 27 34.5C27 19.3122 39.3122 7 54.5 7C69.6878 7 82 19.3122 82 34.5ZM35.7565 34.5C35.7565 44.8517 44.1483 53.2435 54.5 53.2435C64.8517 53.2435 73.2435 44.8517 73.2435 34.5C73.2435 24.1483 64.8517 15.7565 54.5 15.7565C44.1483 15.7565 35.7565 24.1483 35.7565 34.5Z" fill="#BCC574"/>
<path d="M81 107C81 108.97 80.612 110.92 79.8582 112.74C79.1044 114.56 77.9995 116.214 76.6066 117.607C75.2137 118.999 73.5601 120.104 71.7403 120.858C69.9204 121.612 67.9698 122 66 122C64.0302 122 62.0796 121.612 60.2597 120.858C58.4399 120.104 56.7863 118.999 55.3934 117.607C54.0005 116.214 52.8956 114.56 52.1418 112.74C51.388 110.92 51 108.97 51 107H58.95C58.95 107.926 59.1324 108.843 59.4866 109.698C59.8409 110.553 60.3602 111.33 61.0149 111.985C61.6695 112.64 62.4467 113.159 63.3021 113.513C64.1574 113.868 65.0742 114.05 66 114.05C66.9258 114.05 67.8426 113.868 68.6979 113.513C69.5533 113.159 70.3305 112.64 70.9851 111.985C71.6398 111.33 72.1591 110.553 72.5134 109.698C72.8676 108.843 73.05 107.926 73.05 107H81Z" fill="#BCC574"/>
<path d="M59 107C59 108.97 58.5861 110.92 57.7821 112.74C56.978 114.56 55.7994 116.214 54.3137 117.607C52.828 118.999 51.0641 120.104 49.1229 120.858C47.1817 121.612 45.1011 122 43 122C40.8988 122 38.8183 121.612 36.8771 120.858C34.9359 120.104 33.172 118.999 31.6863 117.607C30.2006 116.214 29.022 114.56 28.2179 112.74C27.4139 110.92 27 108.97 27 107H35C35 107.985 35.2069 108.96 35.609 109.87C36.011 110.78 36.6003 111.607 37.3431 112.303C38.086 113 38.9679 113.552 39.9385 113.929C40.9091 114.306 41.9494 114.5 43 114.5C44.0506 114.5 45.0909 114.306 46.0615 113.929C47.0321 113.552 47.914 113 48.6569 112.303C49.3997 111.607 49.989 110.78 50.391 109.87C50.7931 108.96 51 107.985 51 107H59Z" fill="#BCC574"/>
<path d="M99.025 107C101.22 107 103.051 108.81 102.476 110.929C102.309 111.544 102.103 112.149 101.858 112.74C101.104 114.56 99.9995 116.214 98.6066 117.607C97.2137 118.999 95.5601 120.104 93.7402 120.858C91.9204 121.612 89.9698 122 88 122C86.0302 122 84.0796 121.612 82.2597 120.858C80.4399 120.104 78.7863 118.999 77.3934 117.607C76.0005 116.214 74.8956 114.56 74.1418 112.74C73.8969 112.149 73.6905 111.544 73.5236 110.929C72.9486 108.81 74.7797 107 76.975 107H78.1815C79.7105 107 80.9015 108.285 81.4866 109.698C81.8409 110.553 82.3602 111.33 83.0149 111.985C83.6695 112.64 84.4467 113.159 85.3021 113.513C86.1574 113.868 87.0742 114.05 88 114.05C88.9258 114.05 89.8426 113.868 90.6979 113.513C91.5533 113.159 92.3304 112.64 92.9851 111.985C93.6398 111.33 94.1591 110.553 94.5134 109.698C95.0985 108.285 96.2895 107 97.8185 107H99.025Z" fill="#BCC574"/>
</svg>
